<svg width="53" height="53" viewBox="0 0 53 53" fill="none" xmlns="http://www.w3.org/2000/svg">
<path d="M4.07692 11.6545C4.4963 11.6545 4.83318 11.3099 4.83318 10.8964V7.57441C4.83318 7.154 4.48943 6.81628 4.07692 6.81628H0.756259C0.336879 6.81628 0 7.16089 0 7.57441V10.8964C0 11.3168 0.343754 11.6545 0.756259 11.6545H4.07692Z" fill="#C2B59B"/>
<path d="M0.0410156 13.7084C0.536021 19.9733 5.46545 24.9149 11.7149 25.4111V14.4665C11.7149 14.0461 11.3711 13.7084 10.9586 13.7084H0.0410156Z" fill="#FFC93C"/>
<path d="M10.9592 4.75553C11.3786 4.75553 11.7155 4.41092 11.7155 3.9974V0C9.30921 0.427308 7.39793 2.35019 6.97168 4.75553H10.9592Z" fill="#C2B59B"/>
<path d="M46.029 13.7084H42.0414C41.622 13.7084 41.2852 14.053 41.2852 14.4665V18.4639C43.6846 18.0366 45.6027 16.1137 46.029 13.7084Z" fill="#FFC93C"/>
<path d="M32.2653 4.75553C31.839 2.3433 29.9209 0.427308 27.5215 0V3.9974C27.5215 4.41782 27.8652 4.75553 28.2777 4.75553H32.2653Z" fill="#094151"/>
<path d="M19.6212 13.7084C16.39 13.7084 13.7637 16.3411 13.7637 19.5804C13.7637 22.8197 16.39 25.4525 19.6212 25.4525C22.8525 25.4525 25.4788 22.8197 25.4788 19.5804C25.4788 16.3411 22.8457 13.7084 19.6212 13.7084Z" fill="#FF9A3C"/>
<path d="M29.9415 41.2972C28.6077 41.2972 27.5215 42.3862 27.5215 43.7232C27.5215 45.0603 28.6077 46.1493 29.9415 46.1493C31.2753 46.1493 32.3615 45.0603 32.3615 43.7232C32.3615 42.3862 31.2753 41.2972 29.9415 41.2972Z" fill="#094151"/>
<path d="M38.4793 11.6545C38.8987 11.6545 39.2355 11.3099 39.2355 10.8964V7.57441C39.2355 7.154 38.8918 6.81628 38.4793 6.81628H28.2836C27.8642 6.81628 27.5273 7.16089 27.5273 7.57441V10.8964C27.5273 11.3168 27.8711 11.6545 28.2836 11.6545H38.4793Z" fill="#094151"/>
<path d="M37.7929 25.4524L27.5215 15.1556V24.6874C27.5215 25.1078 27.8652 25.4455 28.2777 25.4455H37.7929V25.4524Z" fill="#FF6F3C"/>
<path d="M52.2372 20.6003H42.0414C41.622 20.6003 41.2852 20.9449 41.2852 21.3585V24.6804C41.2852 25.1009 41.6289 25.4386 42.0414 25.4386H52.2372C52.6566 25.4386 52.9934 25.094 52.9934 24.6804V21.3654C53.0003 20.9449 52.6566 20.6003 52.2372 20.6003Z" fill="#FFC93C"/>
<path d="M42.0414 27.4994C41.622 27.4994 41.2852 27.844 41.2852 28.2575V35.9215L45.4858 27.4994H42.0414Z" fill="#094151"/>
<path d="M48.167 42.0761V49.74L52.3677 41.311H48.9233C48.5039 41.3179 48.167 41.6556 48.167 42.0761Z" fill="#FF9A3C"/>
<path d="M13.7776 6.24421C13.9976 9.09753 16.3076 11.4202 19.1539 11.6407C22.2064 11.875 24.8671 9.77984 25.3827 6.80936H20.0614C19.2502 6.80936 18.5901 6.14772 18.5901 5.33446V0C15.6339 0.516905 13.5438 3.18414 13.7776 6.24421Z" fill="#FF6F3C"/>
<path d="M39.1954 41.2972H35.1597C34.7403 41.2972 34.4034 41.6418 34.4034 42.0554V46.7213C34.4034 47.5346 33.7434 48.1962 32.9322 48.1962H28.2777C27.8584 48.1962 27.5215 48.5408 27.5215 48.9543V53C33.7709 52.5037 38.7004 47.5621 39.1954 41.2972Z" fill="#FF6F3C"/>
<path d="M31.5495 32.3514C31.9689 32.3514 32.3058 32.0068 32.3058 31.5933V28.2713C32.3058 27.8509 31.962 27.5132 31.5495 27.5132H28.2358C27.8164 27.5132 27.4795 27.8578 27.4795 28.2713V31.5933C27.4795 32.0137 27.8232 32.3514 28.2358 32.3514H31.5495Z" fill="#FF9A3C"/>
<path d="M38.4802 18.5534C38.8996 18.5534 39.2365 18.2088 39.2365 17.7953V14.4733C39.2365 14.0529 38.8927 13.7152 38.4802 13.7152H35.1664C34.747 13.7152 34.4102 14.0598 34.4102 14.4733V17.7953C34.4102 18.2157 34.7539 18.5534 35.1664 18.5534H38.4802Z" fill="#FF6F3C"/>
<path d="M35.3098 27.4994C34.808 27.4994 34.4023 27.906 34.4023 28.4091V38.3337C34.4023 38.8368 34.808 39.2434 35.3098 39.2434C35.8117 39.2434 36.2173 38.8368 36.2173 38.3337V28.4091C36.2173 27.906 35.8117 27.4994 35.3098 27.4994Z" fill="#C2B59B"/>
<path d="M38.3284 27.4994C37.8265 27.4994 37.4209 27.906 37.4209 28.4091V38.3337C37.4209 38.8368 37.8265 39.2434 38.3284 39.2434C38.8303 39.2434 39.2359 38.8368 39.2359 38.3337V28.4091C39.2359 27.906 38.8303 27.4994 38.3284 27.4994Z" fill="#C2B59B"/>
<path d="M7.83036 6.80933C7.32848 6.80933 6.92285 7.21596 6.92285 7.71908V10.7447C6.92285 11.2478 7.32848 11.6544 7.83036 11.6544C8.33224 11.6544 8.73787 11.2478 8.73787 10.7447V7.71908C8.74474 7.21596 8.33224 6.80933 7.83036 6.80933Z" fill="#094151"/>
<path d="M10.8489 6.80933C10.347 6.80933 9.94141 7.21596 9.94141 7.71908V10.7447C9.94141 11.2478 10.347 11.6544 10.8489 11.6544C11.3508 11.6544 11.7564 11.2478 11.7564 10.7447V7.71908C11.7633 7.21596 11.3508 6.80933 10.8489 6.80933Z" fill="#094151"/>
<path d="M22.6329 0.668571C22.2754 0.310183 21.7047 0.310183 21.3472 0.668571C20.9897 1.02696 20.9897 1.599 21.3472 1.95739L23.4785 4.09393C23.836 4.45232 24.4067 4.45232 24.7642 4.09393C25.1217 3.73554 25.1217 3.1635 24.7642 2.80511L22.6329 0.668571Z" fill="#FF9A3C"/>
<path d="M29.4737 38.5335L31.6049 36.397C31.9625 36.0386 31.9625 35.4665 31.6049 35.1081C31.2474 34.7498 30.6768 34.7498 30.3193 35.1081L28.188 37.2447C27.8305 37.6031 27.8305 38.1751 28.188 38.5335C28.5387 38.8919 29.1162 38.8919 29.4737 38.5335Z" fill="#FFC93C"/>
</svg>
