<svg width="100" height="100" viewBox="0 0 100 100" fill="none" xmlns="http://www.w3.org/2000/svg">
<path d="M41.3674 88.087L29.1372 70.3975V100H41.3674V88.087Z" fill="#A52B30"/>
<path d="M70.5041 70.3975L58.2739 88.087V100H70.5041V70.3975Z" fill="#A52B30"/>
<path d="M16.9065 100V32.491L50 78.7004L82.7338 32.491V100H100V16.6065V0H83.0935L50 47.2924L16.9065 0H0V16.6065V100H16.9065Z" fill="#A52B30"/>
<path d="M49.9999 21.6606C55.9598 21.6606 60.7912 16.8117 60.7912 10.8303C60.7912 4.8489 55.9598 0 49.9999 0C44.04 0 39.2085 4.8489 39.2085 10.8303C39.2085 16.8117 44.04 21.6606 49.9999 21.6606Z" fill="#A52B30"/>
</svg>
