<svg width="35" height="35" viewBox="0 0 35 35" fill="none" xmlns="http://www.w3.org/2000/svg">
<path d="M34.54 17.27C34.54 26.8079 26.8079 34.54 17.27 34.54C7.73204 34.54 0 26.8079 0 17.27C0 7.73204 7.73204 0 17.27 0C26.8079 0 34.54 7.73204 34.54 17.27Z" fill="#009966"/>
<path d="M30.2224 17.2699C30.2224 24.4234 24.4234 30.2224 17.2699 30.2224C10.1164 30.2224 4.31738 24.4234 4.31738 17.2699C4.31738 10.1164 10.1164 4.31738 17.2699 4.31738C24.4234 4.31738 30.2224 10.1164 30.2224 17.2699Z" fill="#F9D551"/>
<path d="M25.905 17.27C25.905 22.039 22.039 25.905 17.27 25.905C12.501 25.905 8.63501 22.039 8.63501 17.27C8.63501 12.501 12.501 8.63501 17.27 8.63501C22.039 8.63501 25.905 12.501 25.905 17.27Z" fill="#0095C5"/>
<path d="M21.5874 17.2699C21.5874 19.6544 19.6544 21.5874 17.2699 21.5874C14.8854 21.5874 12.9524 19.6544 12.9524 17.2699C12.9524 14.8854 14.8854 12.9524 17.2699 12.9524C19.6544 12.9524 21.5874 14.8854 21.5874 17.2699Z" fill="#E73A56"/>
<path d="M30.0737 10.8683C30.0737 13.2528 28.1407 15.1858 25.7562 15.1858C23.3717 15.1858 21.4387 13.2528 21.4387 10.8683C21.4387 8.48379 23.3717 6.55078 25.7562 6.55078C28.1407 6.55078 30.0737 8.48379 30.0737 10.8683Z" fill="white"/>
</svg>
