<svg width="303" height="303" viewBox="0 0 303 303" fill="none" xmlns="http://www.w3.org/2000/svg">
<circle cx="152" cy="151" r="140" fill="white"/>
<mask id="mask0_2978_4807" style="mask-type:alpha" maskUnits="userSpaceOnUse" x="28" y="19" width="251" height="256">
<path d="M29.4999 125L55.4999 49L105 19L196 27L249.5 57.5L279 135.5C274.333 164.5 264.8 223 264 225C263 227.5 204 271.5 202 272C200.4 272.4 142 274.167 113 275C103.667 271.167 78.6999 256.8 53.4999 230C28.2999 203.2 26.9999 148.833 29.4999 125Z" fill="#D9D9D9"/>
</mask>
<g mask="url(#mask0_2978_4807)">
<path d="M-36.3001 155.3V150.9C-35.3001 137.6 -33.1001 124.5 -28.3001 112C-24.3001 101.3 -19.4001 90.9002 -14.6001 80.5002C-13.1001 77.2002 -10.6001 74.5002 -8.60007 71.5002L-7.60007 71.9002C-8.40007 76.9002 -9.00006 82.1002 -10.1001 87.1002C-13.9803 103.394 -19.2669 119.32 -25.9001 134.7C-28.4001 140.7 -31.2001 146.4 -33.9001 152.3C-34.4749 153.461 -35.2935 154.485 -36.3001 155.3ZM-82.8001 151.1C-89.1001 157.2 -92.3001 165.9 -97.2001 173.5C-99.567 177.673 -102.767 181.316 -106.6 184.2L-108.5 185.3V178C-107.5 167.5 -104.4 157.7 -97.5001 149.3C-95.6001 147 -93.2001 144.9 -90.8001 143C-88.0001 140.9 -85.2001 142.4 -84.7001 145.8C-84.4001 147.5 -83.6001 149 -82.8001 151.1ZM394.2 144.8C392.296 131.334 386.914 118.598 378.584 107.847C370.254 97.0973 359.264 88.7054 346.7 83.5002C337.348 79.3326 327.257 77.0793 317.021 76.8732C306.785 76.6671 296.612 78.5124 287.1 82.3002C286.1 82.7002 285.5 82.5002 285 81.5002L282.5 76.9002C263.917 44.0858 233.8 19.3505 198 7.50024C171.723 -1.22732 143.529 -2.43956 116.6 4.00024C96.717 8.58904 77.9813 17.1916 61.542 29.2803C45.1028 41.3691 31.3066 56.6889 20.9999 74.3002L18.6999 78.5002L21.1999 78.6002H39.3999C44.8999 78.6002 44.9999 78.6002 46.9999 73.6002C50.3999 64.5002 55.9999 57.9002 65.6999 55.0002C77.6999 51.3002 89.4999 46.8002 101.6 43.8002C121 38.9002 140.8 36.4002 160.8 37.9002C169.2 38.6002 177.6 39.6002 185.8 40.7002C196.043 42.2666 206.119 44.7773 215.9 48.2002C224.389 51.0402 232.824 54.0408 241.2 57.2002C244.908 58.5489 248.07 61.0787 250.2 64.4002C253.724 69.8122 256.358 75.7543 258 82.0002C261.1 93.3002 263.8 104.7 266.6 116L267.1 117.6L267.6 117.8L268.4 116.6C273.972 110.132 280.769 104.83 288.4 101C297.198 96.8121 306.859 94.7565 316.6 95.0002C332 95.1002 345.4 100.4 356.7 110.7C363.452 116.482 368.819 123.708 372.402 131.843C375.985 139.979 377.693 148.816 377.4 157.7C377.495 163.583 376.381 169.424 374.127 174.859C371.874 180.294 368.529 185.21 364.3 189.3C356.8 196.4 347.9 197.6 338.4 195C332.4 193.4 329.1 188.4 326.8 182.8C325.8 180.5 325.8 180.4 323.5 181.4C319.658 183.049 315.426 183.57 311.3 182.9C307.76 182.393 304.361 181.17 301.31 179.305C298.259 177.44 295.62 174.972 293.555 172.053C291.49 169.133 290.042 165.823 289.3 162.325C288.558 158.827 288.537 155.214 289.238 151.708C289.939 148.201 291.348 144.875 293.379 141.931C295.409 138.988 298.019 136.489 301.048 134.589C304.077 132.688 307.462 131.425 310.995 130.877C314.529 130.328 318.137 130.507 321.6 131.4L324.8 132.2C324.8 130.3 325.9 130.5 327 130.5H338.8C341.4 130.5 341.4 130.5 341.4 133.1V168C341.4 171.2 342.4 174.2 343.9 176.9C345.2 179.2 346.9 179.7 349.2 178.4C350.5 177.7 351.9 176.7 352.7 175.4C355.267 171.915 357.119 167.955 358.149 163.75C359.179 159.545 359.366 155.178 358.7 150.9C357.198 140.745 352.128 131.457 344.4 124.7C339.894 120.474 334.509 117.296 328.631 115.394C322.753 113.492 316.528 112.914 310.4 113.7C300.028 114.865 290.45 119.814 283.5 127.6C277.341 134.111 273.382 142.39 272.18 151.271C270.978 160.152 272.594 169.187 276.8 177.1C281.693 186.695 290 194.111 300.087 197.887C310.174 201.662 321.309 201.524 331.3 197.5C332.5 197.1 333.2 197.2 333.8 198.3L341.1 211.8C341.7 212.8 341.4 213.3 340.3 213.8C328.036 219.195 314.359 220.493 301.3 217.5C289.073 214.861 278.045 208.294 269.9 198.8C260.849 189.18 254.561 177.296 251.7 164.4L250.4 158.6C249.9 156.6 248.8 155 247.1 153.8C241.5 149.9 235.1 148.7 228.6 148.7C220.4 148.7 212.5 150.8 205.7 155.7C201.7 158.7 198.2 162.2 194.5 165.5L191 168.5L188.6 157.5L182.2 126.5C181.2 121.3 178.2 117.5 173.4 115.3C166.229 111.881 158.399 110.066 150.455 109.979C142.511 109.893 134.644 111.538 127.4 114.8C122.3 117 119 120.9 117.9 126.5L109.5 166.9C109.5 167.5 109.2 168.1 109 168.9C108.2 168.3 107.5 167.9 107 167.3L96.9999 158.8C93.0999 155.8 89.2999 152.8 84.6999 151C77.5716 148.582 69.85 148.546 62.6999 150.9C56.6999 152.5 52.9999 155.9 51.6999 162.3C50.1169 170.546 46.8487 178.376 42.0999 185.3C39.5999 188.9 36.5999 192.1 32.3999 193.9C26.7999 196.1 22.4999 194.2 20.6999 188.4C18.6999 182.4 19.0999 176.1 19.6999 170C20.5999 162.7 22.0999 155.6 23.2999 148.3C23.4999 146.9 23.3999 145.4 23.0999 144.1C22.6999 142.1 20.8999 141.2 19.2999 142.3C17.5999 143.3 15.5999 144.7 14.9999 146.4C11.5999 154.8 8.69991 163.3 5.49991 171.7C5.10254 172.869 4.49226 173.954 3.69992 174.9C-1.323 180.1 -7.04443 184.576 -13.3001 188.2C-15.9001 189.7 -18.6001 191.2 -21.5001 191.8C-27.7001 193.2 -32.1001 191.9 -34.4001 184.4L-34.5001 183.9L-36.3001 170.7C-36.3001 170.1 -35.8001 169.3 -35.4001 168.8C-32.0001 164.8 -28.4001 161.1 -25.4001 156.8C-18.4001 147.2 -13.1001 136.5 -8.40012 125.5C-1.61626 109.836 3.41432 93.4702 6.59988 76.7002C7.79988 70.2002 7.79993 63.7002 4.89993 57.5002C4.29425 56.026 3.34154 54.7197 2.12283 53.6925C0.904129 52.6653 -0.544525 51.9476 -2.10007 51.6002C-5.70007 50.8002 -8.80008 51.8002 -11.8001 53.6002C-19.2017 58.0876 -25.303 64.4302 -29.5001 72.0002C-36.5001 84.0002 -41.3001 97.0002 -44.8001 110.6C-47.6064 121.7 -49.5455 133 -50.6001 144.4C-51.4001 153 -51.6001 161.5 -51.0001 170.1C-50.9001 171.3 -51.1001 172.8 -51.8001 173.8C-55.1001 178.8 -58.5001 183.8 -62.2001 188.5C-64.7888 191.722 -67.5953 194.762 -70.6001 197.6C-71.9001 198.9 -73.8001 199.5 -75.6001 198.4C-77.3001 197.4 -76.9001 195.6 -76.6001 194.2C-75.7001 188.7 -74.8001 183.2 -73.5001 177.9C-71.9001 171.1 -69.9001 164.3 -68.0001 157.6C-66.8001 153.3 -69.8001 147.2 -75.0001 147.6C-76.3001 147.8 -76.3001 147 -76.2001 146.1C-75.6001 137.1 -82.9001 130.5 -91.8001 132.1C-96.8001 133.1 -100.9 135.8 -104.5 139.2C-113.59 148.1 -119.792 159.529 -122.3 172C-123 175.3 -124.5 178 -126.6 180.6C-128.457 182.8 -130.426 184.903 -132.5 186.9C-135.051 189.462 -138.22 191.322 -141.7 192.3C-143.1 192.6 -144.1 192.3 -144.7 190.9C-145.5 189.2 -146 187.6 -146.3 185.9C-147.5 179.7 -147 173.5 -146.5 167.4C-146.3 163.4 -145.8 159.6 -145.7 155.7C-145.659 154.267 -146.059 152.856 -146.846 151.658C-147.633 150.46 -148.769 149.532 -150.1 149C-152.8 147.7 -155.3 148.5 -157.4 150.3C-158.6 151.3 -159.7 152.6 -160.6 154C-162.6 157 -164.3 160 -166.2 163L-172 172.4L-172.4 172.3L-170.6 163.3C-169.7 159.3 -168.6 155.3 -167.8 151.2C-166.9 146.3 -166.8 141.4 -168.6 136.6C-170.8 130.7 -177.6 128.6 -182.4 132.5C-185.159 134.645 -187.527 137.25 -189.4 140.2C-194.3 148.4 -198.8 156.8 -203.4 165.2L-204.7 167.4C-204.9 166.6 -204.7 166 -204.6 165.3C-203.5 160.3 -202.3 155.2 -201.4 150.1C-200.7 146.5 -200.9 142.8 -202.4 139.3C-203.4 136.8 -204.7 136.5 -206.4 138.7C-208.063 140.865 -209.472 143.214 -210.6 145.7C-212.4 150.2 -214 154.7 -215.4 159.2C-218.2 168.2 -220.9 177.3 -223.4 186.5C-224.4 190.9 -225.1 195.5 -224.2 200.2C-223 206.8 -217.4 209.2 -211.9 205.4C-211.1 204.9 -210.3 204.4 -209.8 203.7C-206.8 200 -203.6 196.5 -201.1 192.5C-197.2 186.1 -193.8 179.4 -190.2 172.8C-190 172.2 -189.7 171.8 -189.3 171.2C-189.3 175.5 -189.5 179.5 -189.3 183.6C-189.1 186.3 -188.6 189.1 -187.7 191.6C-187.27 193.362 -186.253 194.925 -184.818 196.033C-183.383 197.142 -181.613 197.729 -179.8 197.7C-176.5 197.7 -173.1 197.3 -170.5 195C-168 192.9 -165.9 190.3 -163.8 187.8C-162.5 186.3 -161.5 184.7 -160.3 183L-159.9 183.4L-159.7 184.6C-159 189.4 -158.5 195.8 -156.1 200C-151.9 207.5 -143.6 209.9 -136.6 205.4C-134.1 203.9 -131.3 200.7 -129.2 198.4L-123.6 192.1L-122.7 194.2C-119.9 202 -110.3 205.7 -103.5 201.4C-101.6 200.3 -99.8001 199.2 -98.0001 197.9C-95.3001 195.9 -92.8001 193.9 -89.9001 191.5C-89.7001 193.3 -89.7001 194.8 -89.4001 196.2C-88.6001 199.6 -88.1001 203.2 -86.7001 206.4C-84.7001 210.9 -80.8001 212.7 -76.0001 211.5C-73.6133 210.939 -71.3221 210.029 -69.2001 208.8C-62.2001 204.8 -57.2001 198.6 -52.6001 192L-48.2001 185.7L-46.2001 190.8C-44.2001 194.8 -42.0001 198.3 -38.6001 201C-33.0001 205.4 -26.7001 205.5 -20.3001 203.5C-12.1998 200.749 -4.77126 196.319 1.49991 190.5L3.49991 188.8L3.59988 193.4C4.59988 203.9 10.2999 209.8 21.2999 208C33.6702 206.005 44.8407 199.439 52.5999 189.6C54.2999 187.6 55.7999 185.3 57.3999 183.2C57.1999 185.2 56.7999 187 56.2999 188.8C55.2999 192.4 54.0999 196 53.2999 199.8C52.6999 202.2 53.7999 203.6 56.2999 203.8L58.8999 203.9C61.5999 203.9 62.8999 205 63.3999 207.6L64.4999 213.1C66.4999 221.1 68.1999 222.1 76.1999 220.6C78.4999 220.2 80.1999 219.1 80.8999 216.9C81.8701 214.186 82.6716 211.414 83.2999 208.6C83.9999 205 84.9999 204 88.5999 203.9C93.4999 203.9 94.2999 202.9 93.2999 198.2C91.5999 190.7 89.6999 183.2 88.2999 175.7C87.7999 173 88.2999 170 88.2999 166.7C89.7999 167.4 90.5999 167.7 91.2999 168.2L108.5 178.5C112.9 181.1 115.1 180.3 117 175.6L117.3 175L126.8 151.8C127.1 150.8 127.6 149.9 128 149C128.8 156 129.1 163 130 170C131.1 180 132.6 190.2 134.2 200.3C135 205.3 136.4 210.3 137.7 215.3C137.929 216.662 138.622 217.904 139.66 218.815C140.698 219.726 142.019 220.25 143.4 220.3L151.9 220.5C160.2 220.5 162.6 218.7 164.1 210.5C165.6 202 167.1 193.5 168.2 184.9C169.8 173.3 171.2 161.7 171.3 149.9L171.4 148.3C172.4 149.3 172.9 150.5 173.4 151.7C176.7 160 179.9 168.3 183.4 176.5C184.9 180.1 187.1 180.7 190.6 178.8L191.6 178.1L210.3 166.5C210.6 166.3 211 166.3 211.6 166.1L212.4 175.9C213.4 185.1 214.4 194.2 215.6 203.3C216.1 207.3 216.7 211.3 217.6 215.3C218.3 218.8 219.8 220.1 223.5 220.4C226.6 220.6 229.8 220.7 233 220.4C237.2 219.9 238.5 218.6 239.5 214.4L239.9 212.8L243.8 182.4L244.4 176.9C248.4 187.9 253.2 198.5 260.4 207.8C260.8 208.3 261 209.3 260.8 210C258.8 217.7 256.5 225.5 252.8 232.7C250.7 236.5 248.6 240.5 244.5 242.7C241.857 244.126 239.117 245.362 236.3 246.4C215.9 253.8 195.3 260.4 173.6 262.4C146.667 265.444 119.398 263.064 93.3999 255.4L62.0999 245C56.8999 243.2 52.9999 239.8 50.4999 235C48.7999 231.7 47.1999 228.4 45.8999 225C45.1999 223.4 44.3999 223 42.8999 223H20.9999L18.7999 223.1L20.0999 225.6C31.5253 245.463 47.3214 262.465 66.2916 275.318C85.2618 288.172 106.908 296.539 129.592 299.786C152.275 303.034 175.4 301.076 197.214 294.061C219.029 287.047 238.961 275.16 255.5 259.3C264.5 250.7 272.4 241 278.9 230.4C279.9 228.9 280.6 228.7 282.2 229.4C296.6 236.2 311.7 238.4 327.4 235.9C338.807 234.281 349.712 230.149 359.327 223.803C368.942 217.456 377.028 209.053 383 199.2C393.535 183.122 397.541 163.63 394.2 144.7M18.3999 126.1C18.3999 128.8 21.1999 131.9 23.7999 131.9C26.3999 131.9 28.7999 129.3 28.7999 126.3C28.7999 123 26.9999 121.1 23.7999 121.1C20.7999 121.1 18.3999 123.2 18.3999 126.1ZM53.6999 124.9C53.6999 135.9 62.2999 144.6 73.3999 144.6C84.3999 144.6 93.3999 135.6 93.3999 124.5C93.2695 119.283 91.1048 114.323 87.3681 110.68C83.6314 107.037 78.6187 104.999 73.3999 105C62.4999 104.8 53.6999 114 53.6999 124.9ZM150.1 58.7002C137.1 58.7002 126.9 68.8002 126.9 81.7002C126.887 84.7469 127.474 87.7663 128.628 90.5861C129.781 93.4059 131.479 95.9709 133.624 98.1345C135.769 100.298 138.319 102.018 141.129 103.196C143.939 104.374 146.953 104.987 150 105C153.033 105.007 156.039 104.416 158.844 103.261C161.649 102.106 164.199 100.41 166.349 98.2698C168.498 96.1294 170.205 93.5865 171.372 90.7864C172.539 87.9863 173.143 84.9838 173.15 81.9502C173.156 78.9167 172.565 75.9116 171.411 73.1064C170.256 70.3013 168.56 67.7511 166.419 65.6014C164.279 63.4517 161.736 61.7447 158.936 60.5778C156.136 59.4108 153.133 58.8068 150.1 58.8002M228.4 104.6C223.216 104.677 218.265 106.764 214.59 110.42C210.915 114.076 208.803 119.017 208.7 124.2C208.7 136.1 216.8 144.4 228.5 144.3C233.7 144.196 238.655 142.071 242.315 138.374C245.974 134.678 248.049 129.701 248.1 124.5C248.1 113.8 239.1 104.5 228.4 104.5M324.9 157.1C324.9 152.1 320.6 147.7 315.6 147.6C310.7 147.6 306.1 152.1 306.1 157.1C306.1 162.1 310.3 166.3 315.4 166.3C320.6 166.3 324.9 162.2 324.9 157.1Z" fill="#76B643"/>
</g>
<circle cx="151.5" cy="151.5" r="136" stroke="#76B643" stroke-width="31"/>
</svg>
