<svg width="252" height="252" viewBox="0 0 252 252" fill="none" xmlns="http://www.w3.org/2000/svg">
<path fill-rule="evenodd" clip-rule="evenodd" d="M0.970748 103.229C-1.47 107.704 0.909818 113.393 5.67355 114.47L61.7092 127.143C65.8942 128.09 70.1832 126.067 72.3275 122.136C74.493 118.165 73.9701 113.168 71.0374 109.807L63.9479 101.684C56.1892 92.7928 63.9343 78.5922 75.0873 81.2596L85.3437 83.7126C89.5205 84.7115 93.8299 82.711 95.9755 78.7771C98.0966 74.8882 97.6167 69.9992 94.7867 66.6665L90.9931 62.1989L88.9375 69.2857C88.0031 72.5071 85.1642 74.7096 81.9464 74.7096C76.9825 74.7096 73.4638 69.6419 74.9985 64.7032L79.8532 49.0801L56.4656 21.5377C53.178 17.666 47.2759 18.3291 44.8118 22.8471C43.2144 25.7758 43.6111 29.4634 45.7886 31.9282L53.2551 40.3797C61.1257 49.2885 53.2826 63.6262 42.0657 60.8347L32.7705 58.5214C28.8945 57.5568 24.8751 59.4007 22.88 63.0587C20.885 66.7166 21.3862 71.3233 24.1133 74.3943L30.6534 81.759C38.5456 90.6463 30.7373 105.005 19.5136 102.244L8.82248 99.6145C5.74319 98.857 2.55478 100.325 0.970748 103.229Z" fill="#FF5B39"/>
<path fill-rule="evenodd" clip-rule="evenodd" d="M40.212 122.284L56.3069 125.924L53.7358 128.835C45.8652 137.744 53.7083 152.081 64.9252 149.29L74.2203 146.976C78.0963 146.012 82.1157 147.856 84.1108 151.514C86.1059 155.172 85.6047 159.778 82.8775 162.849L76.3375 170.214C68.4452 179.101 76.2535 193.46 87.4773 190.699L98.1248 188.08C101.23 187.316 104.445 188.797 106.043 191.725C108.507 196.243 106.098 201.986 101.287 203.064L45.2059 215.63C41.0644 216.558 36.8247 214.553 34.7036 210.664C32.5581 206.731 33.0761 201.78 35.9818 198.45L43.1168 190.274C50.8755 181.383 43.1304 167.183 31.9775 169.85L21.7865 172.287C17.5707 173.296 13.2211 171.276 11.0556 167.306C8.91132 163.374 9.401 158.431 12.2679 155.068L40.212 122.284Z" fill="#39AD84"/>
<path fill-rule="evenodd" clip-rule="evenodd" d="M170.247 252C175.164 252 178.653 246.985 177.142 242.091L159.365 184.513C158.037 180.213 154.21 177.299 149.891 177.299C145.528 177.299 141.674 180.27 140.382 184.629L137.258 195.167C133.839 206.699 118.237 206.699 114.818 195.167L111.674 184.562C110.394 180.243 106.575 177.299 102.253 177.299C97.9804 177.299 94.1935 180.177 92.8725 184.428L91.1997 189.811L98.126 188.107C101.231 187.343 104.446 188.824 106.044 191.752C108.508 196.27 106.099 202.012 101.288 203.091L86.0094 206.514L74.9844 241.994C73.4498 246.932 76.9685 252 81.9324 252C85.1501 252 87.989 249.797 88.9234 246.576L92.1274 235.53C95.5047 223.887 111.269 223.908 114.618 235.561L117.393 245.217C118.55 249.243 122.094 252 126.112 252C130.131 252 133.675 249.243 134.832 245.217L137.607 235.561C140.956 223.908 156.72 223.887 160.098 235.53L163.315 246.621C164.241 249.816 167.056 252 170.247 252Z" fill="#FCB03F"/>
<path fill-rule="evenodd" clip-rule="evenodd" d="M207.178 22.7812C204.737 18.3061 198.894 17.6437 195.63 21.4721L157.244 66.5058C154.378 69.8692 153.888 74.8124 156.032 78.7439C158.198 82.7144 162.547 84.7336 166.763 83.7253L176.954 81.288C188.107 78.6206 195.852 92.8212 188.093 101.712L180.958 109.888C178.053 113.218 177.535 118.168 179.68 122.102C181.801 125.991 186.041 127.996 190.182 127.068L246.263 114.502C251.075 113.423 253.483 107.681 251.019 103.163C249.422 100.235 246.207 98.7544 243.101 99.5182L232.454 102.137C221.23 104.898 213.422 90.5393 221.314 81.652L227.854 74.2874C230.581 71.2164 231.082 66.6096 229.087 62.9517C227.092 59.2937 223.073 57.4498 219.197 58.4144L209.902 60.7277C198.685 63.5192 190.842 49.1815 198.712 40.2727L206.209 31.7866C208.369 29.3424 208.762 25.6855 207.178 22.7812ZM190.784 120.497L195.514 125.85L211.742 122.214L201.461 110.107C198.174 106.235 192.272 106.898 189.808 111.416C188.21 114.345 188.607 118.033 190.784 120.497Z" fill="#39AD84"/>
<path fill-rule="evenodd" clip-rule="evenodd" d="M166.139 206.552L161.02 189.971L164.416 190.806C175.64 193.567 183.448 179.208 175.556 170.321L169.016 162.956C166.289 159.885 165.788 155.279 167.783 151.621C169.778 147.963 173.797 146.119 177.673 147.083L186.968 149.397C198.185 152.188 206.028 137.851 198.158 128.942L190.691 120.49C188.514 118.025 188.117 114.338 189.714 111.409C192.179 106.891 198.081 106.228 201.368 110.1L239.689 155.229C242.519 158.561 242.999 163.45 240.878 167.339C238.733 171.273 234.423 173.274 230.246 172.275L219.99 169.822C208.837 167.154 201.092 181.355 208.85 190.246L215.94 198.369C218.873 201.73 219.396 206.727 217.23 210.698C215.086 214.629 210.797 216.652 206.612 215.705L166.139 206.552Z" fill="#FF5B39"/>
<path fill-rule="evenodd" clip-rule="evenodd" d="M161.164 61.9036L160.098 58.2286C156.72 46.5851 140.956 46.6063 137.607 58.2589L134.832 67.9151C133.675 71.9416 130.131 74.6982 126.112 74.6982C122.094 74.6982 118.55 71.9416 117.393 67.9151L114.618 58.2589C111.269 46.6063 95.5047 46.5851 92.1274 58.2286L88.9234 69.2744C87.989 72.4957 85.1501 74.6982 81.9324 74.6982C76.9685 74.6982 73.4498 69.6305 74.9844 64.6918L92.8725 7.12624C94.1935 2.87514 97.9804 -0.00283153 102.253 -0.00283171C106.575 -0.0028319 110.394 2.94095 111.674 7.25979L114.818 17.8649C118.237 29.3971 133.839 29.3971 137.258 17.865L140.382 7.32747C141.674 2.96839 145.528 -0.00282598 149.891 -0.00282617C154.21 -0.00282635 158.037 2.91114 159.365 7.21136L172.239 48.91L161.164 61.9036Z" fill="#FCB03F"/>
</svg>
