<svg width="156" height="156" viewBox="0 0 156 156" fill="none" xmlns="http://www.w3.org/2000/svg">
<path d="M0 0H156V156H0V0Z" fill="white"/>
<path fill-rule="evenodd" clip-rule="evenodd" d="M151 5H5V151H151V5ZM0 0V156H156V0H0Z" fill="#74B233"/>
<path d="M88.1505 94.4395V137H67.7825V94.4395L27.7305 27.1035H45.7425C47.5159 27.1035 48.9092 27.5342 49.9225 28.3955C50.9865 29.2568 51.8732 30.3462 52.5825 31.6635L72.6465 68.3715C73.8119 70.5502 74.8252 72.6022 75.6865 74.5275C76.5985 76.4528 77.4092 78.3782 78.1185 80.3035C78.7772 78.3782 79.5372 76.4528 80.3985 74.5275C81.2599 72.6022 82.2479 70.5502 83.3625 68.3715L103.351 31.6635C103.908 30.5488 104.744 29.5102 105.859 28.5475C106.973 27.5848 108.392 27.1035 110.115 27.1035H128.203L88.1505 94.4395Z" fill="#74B233"/>
</svg>
